<?xml version="1.0" encoding="UTF-8" standalone="no"?>
<svg
   version="1.1"
   viewBox="-10 0 1026.012 1000"
   id="svg1"
   sodipodi:docname="Bi.svg"
   xml:space="preserve"
   inkscape:version="1.3.2 (091e20e, 2023-11-25, custom)"
   width="1026.012"
   height="1000"
   inkscape:export-filename="FBKINGDOM_a.svg"
   inkscape:export-xdpi="96"
   inkscape:export-ydpi="96"
   xmlns:inkscape="http://www.inkscape.org/namespaces/inkscape"
   xmlns:sodipodi="http://sodipodi.sourceforge.net/DTD/sodipodi-0.dtd"
   xmlns="http://www.w3.org/2000/svg"
   xmlns:svg="http://www.w3.org/2000/svg"><defs
     id="defs1" /><sodipodi:namedview
     id="namedview1"
     pagecolor="#505050"
     bordercolor="#eeeeee"
     borderopacity="1"
     inkscape:showpageshadow="0"
     inkscape:pageopacity="0"
     inkscape:pagecheckerboard="0"
     inkscape:deskcolor="#d1d1d1"
     inkscape:zoom="0.54793441"
     inkscape:cx="384.17007"
     inkscape:cy="480.89697"
     inkscape:current-layer="layer3" /><g
     inkscape:groupmode="layer"
     id="layer3"
     inkscape:label="i"
     style="display:inline"><g
       id="g1"
       transform="translate(136,-2.5804062)"><rect
         style="fill:#000000;fill-opacity:1;stroke:none;stroke-width:7.55906;stroke-linecap:round;stroke-linejoin:round;stroke-dashoffset:13.9374"
         id="rect2"
         width="121.30656"
         height="614.27576"
         x="591.37085"
         y="363.91968" /><path
         id="path2"
         style="fill:#000000;fill-opacity:1;stroke:none;stroke-width:7.55906;stroke-linecap:round;stroke-linejoin:round;stroke-dashoffset:13.9374"
         d="M 652.02344,20.648438 A 150.98795,150.98795 0 0 0 501.03711,171.63672 150.98795,150.98795 0 0 0 652.02344,322.62305 150.98795,150.98795 0 0 0 803.01172,171.63672 150.98795,150.98795 0 0 0 652.02344,20.648438 Z m 0,29.68164 A 121.30656,121.30656 0 0 1 773.33008,171.63672 121.30656,121.30656 0 0 1 652.02344,292.94336 121.30656,121.30656 0 0 1 530.7168,171.63672 121.30656,121.30656 0 0 1 652.02344,50.330078 Z" /></g><rect
       style="fill:#000000;fill-opacity:1;stroke-width:5.513;stroke-linecap:round;stroke-linejoin:round;stroke-dashoffset:13.9374"
       id="rect4"
       width="177.02849"
       height="177.02849"
       x="370.72403"
       y="320.30301" /></g><g
     inkscape:groupmode="layer"
     id="layer11"
     inkscape:label="H"
     style="display:inline"><path
       id="rect9"
       style="fill:#030000;fill-opacity:1;stroke:none;stroke-width:5.92121;stroke-linecap:round;stroke-linejoin:round;stroke-dashoffset:13.9374"
       d="M 67,15.486328 V 975.61523 h 50.40626 68.3203 500.83985 V 947.22461 H 185.72656 V 15.486328 Z" /></g></svg>
