<?xml version="1.0" encoding="UTF-8" standalone="no"?>
<svg
   version="1.1"
   viewBox="-10 0 913.95502 1000"
   id="svg1"
   sodipodi:docname="Bo.svg"
   xml:space="preserve"
   inkscape:version="1.3.2 (091e20e, 2023-11-25, custom)"
   width="913.95502"
   height="1000"
   inkscape:export-filename="FBKINGDOM_a.svg"
   inkscape:export-xdpi="96"
   inkscape:export-ydpi="96"
   xmlns:inkscape="http://www.inkscape.org/namespaces/inkscape"
   xmlns:sodipodi="http://sodipodi.sourceforge.net/DTD/sodipodi-0.dtd"
   xmlns="http://www.w3.org/2000/svg"
   xmlns:svg="http://www.w3.org/2000/svg"><defs
     id="defs1" /><sodipodi:namedview
     id="namedview1"
     pagecolor="#505050"
     bordercolor="#eeeeee"
     borderopacity="1"
     inkscape:showpageshadow="0"
     inkscape:pageopacity="0"
     inkscape:pagecheckerboard="0"
     inkscape:deskcolor="#d1d1d1"
     inkscape:zoom="0.54793441"
     inkscape:cx="385.9951"
     inkscape:cy="480.89697"
     inkscape:current-layer="layer6" /><g
     inkscape:groupmode="layer"
     id="layer6"
     inkscape:label="o"
     style="display:inline"><path
       id="path4"
       style="fill:#060000;fill-opacity:1;stroke:none;stroke-width:7.55906;stroke-linecap:round;stroke-linejoin:round;stroke-dashoffset:13.9374"
       d="M 603.69922,273.58594 A 223.25569,223.25569 0 0 0 380.44531,496.83984 223.25569,223.25569 0 0 0 603.69922,720.0957 223.25569,223.25569 0 0 0 826.95508,496.83984 223.25569,223.25569 0 0 0 603.69922,273.58594 Z m 0,33.55273 A 189.7028,189.7028 0 0 1 793.40234,496.83984 189.7028,189.7028 0 0 1 603.69922,686.54297 189.7028,189.7028 0 0 1 413.99805,496.83984 189.7028,189.7028 0 0 1 603.69922,307.13867 Z" /><rect
       style="fill:#000000;fill-opacity:1;stroke-width:5.513;stroke-linecap:round;stroke-linejoin:round;stroke-dashoffset:13.9374"
       id="rect4"
       width="177.02849"
       height="177.02849"
       x="293.38965"
       y="15.486328" /></g><g
     inkscape:groupmode="layer"
     id="layer11"
     inkscape:label="H"
     style="display:inline"><path
       id="rect9"
       style="fill:#030000;fill-opacity:1;stroke:none;stroke-width:5.92121;stroke-linecap:round;stroke-linejoin:round;stroke-dashoffset:13.9374"
       d="M 67,15.486328 V 975.61523 h 50.40626 68.3203 500.83985 V 947.22461 H 185.72656 V 15.486328 Z" /></g></svg>
