<?xml version="1.0" encoding="UTF-8" standalone="no"?>
<svg
   version="1.1"
   viewBox="-10 0 1053.955 1000"
   id="svg1"
   sodipodi:docname="Go.svg"
   xml:space="preserve"
   inkscape:version="1.3.2 (091e20e, 2023-11-25, custom)"
   width="1053.955"
   height="1000"
   inkscape:export-filename="FBKINGDOM_a.svg"
   inkscape:export-xdpi="96"
   inkscape:export-ydpi="96"
   xmlns:inkscape="http://www.inkscape.org/namespaces/inkscape"
   xmlns:sodipodi="http://sodipodi.sourceforge.net/DTD/sodipodi-0.dtd"
   xmlns="http://www.w3.org/2000/svg"
   xmlns:svg="http://www.w3.org/2000/svg"><defs
     id="defs1" /><sodipodi:namedview
     id="namedview1"
     pagecolor="#505050"
     bordercolor="#eeeeee"
     borderopacity="1"
     inkscape:showpageshadow="0"
     inkscape:pageopacity="0"
     inkscape:pagecheckerboard="0"
     inkscape:deskcolor="#d1d1d1"
     inkscape:zoom="0.54793441"
     inkscape:cx="385.9951"
     inkscape:cy="480.89697"
     inkscape:current-layer="layer6" /><g
     inkscape:groupmode="layer"
     id="layer6"
     inkscape:label="o"
     style="display:inline"><path
       id="path4"
       style="fill:#060000;fill-opacity:1;stroke:none;stroke-width:7.55906;stroke-linecap:round;stroke-linejoin:round;stroke-dashoffset:13.9374"
       d="M 743.69922,369.58594 A 223.25569,223.25569 0 0 0 520.44531,592.83984 223.25569,223.25569 0 0 0 743.69922,816.0957 223.25569,223.25569 0 0 0 966.95508,592.83984 223.25569,223.25569 0 0 0 743.69922,369.58594 Z m 0,33.55273 A 189.7028,189.7028 0 0 1 933.40234,592.83984 189.7028,189.7028 0 0 1 743.69922,782.54297 189.7028,189.7028 0 0 1 553.99805,592.83984 189.7028,189.7028 0 0 1 743.69922,403.13867 Z" /><rect
       style="fill:#000000;fill-opacity:1;stroke-width:5.513;stroke-linecap:round;stroke-linejoin:round;stroke-dashoffset:13.9374"
       id="rect4"
       width="177.02849"
       height="177.02849"
       x="392.67712"
       y="798.58673" /></g><g
     inkscape:groupmode="layer"
     id="layer7"
     inkscape:label="K"
     style="display:inline"><path
       id="rect5"
       style="fill:#000000;fill-opacity:1;stroke:none;stroke-width:7.55906;stroke-linecap:round;stroke-linejoin:round;stroke-dashoffset:13.9374"
       d="M 67,15.486328 V 975.61523 h 105.50196 26.1289 66.78711 L 713.13282,15.486328 H 620.2168 L 198.63086,919.58203 V 15.486328 Z"
       inkscape:label="rect5" /></g></svg>
