<?xml version="1.0" encoding="UTF-8" standalone="no"?>
<!-- Created with Inkscape (http://www.inkscape.org/) -->

<svg
   width="957.396mm"
   height="1000mm"
   viewBox="0 0 957.39599 999.99999"
   version="1.1"
   id="svg1"
   inkscape:version="1.3.2 (091e20e, 2023-11-25, custom)"
   sodipodi:docname="Bo.svg"
   xml:space="preserve"
   xmlns:inkscape="http://www.inkscape.org/namespaces/inkscape"
   xmlns:sodipodi="http://sodipodi.sourceforge.net/DTD/sodipodi-0.dtd"
   xmlns="http://www.w3.org/2000/svg"
   xmlns:svg="http://www.w3.org/2000/svg"><sodipodi:namedview
     id="namedview1"
     pagecolor="#505050"
     bordercolor="#eeeeee"
     borderopacity="1"
     inkscape:showpageshadow="0"
     inkscape:pageopacity="0"
     inkscape:pagecheckerboard="0"
     inkscape:deskcolor="#d1d1d1"
     inkscape:document-units="mm"
     inkscape:zoom="0.17572076"
     inkscape:cx="1522.3017"
     inkscape:cy="1641.8094"
     inkscape:current-layer="svg1" /><defs
     id="defs1" /><path
     id="path4"
     style="display:inline;fill:#060000;fill-opacity:1;stroke:none;stroke-width:5.78662;stroke-linecap:round;stroke-linejoin:round;stroke-dashoffset:13.9374"
     d="m 654.48903,330.76365 a 170.90716,170.90716 0 0 0 -170.9058,170.90581 170.90716,170.90716 0 0 0 170.9058,170.9073 170.90716,170.90716 0 0 0 170.9073,-170.9073 170.90716,170.90716 0 0 0 -170.9073,-170.90581 z m 0,25.68535 a 145.22168,145.22168 0 0 1 145.2218,145.22046 145.22168,145.22168 0 0 1 -145.2218,145.222 145.22168,145.22168 0 0 1 -145.2204,-145.222 145.22168,145.22168 0 0 1 145.2204,-145.22046 z"
     inkscape:label="o" /><path
     id="rect9"
     style="display:inline;fill:#030000;fill-opacity:1;stroke:none;stroke-width:4.53282;stroke-linecap:round;stroke-linejoin:round;stroke-dashoffset:13.9374"
     d="M 132,132.50001 V 867.4998 h 38.58716 52.30066 383.40398 V 845.76616 H 222.88782 V 132.50001 Z"
     inkscape:label="H" /><rect
     style="fill:#000000;fill-opacity:1;stroke-width:6.42958;stroke-linecap:round;stroke-linejoin:round;stroke-dashoffset:13.9374"
     id="rect1"
     width="162.58136"
     height="162.58136"
     x="292.341"
     y="220.23512"
     inkscape:label="&quot;" /></svg>
