<?xml version="1.0" encoding="UTF-8" standalone="no"?>
<!-- Created with Inkscape (http://www.inkscape.org/) -->

<svg
   width="1123.502mm"
   height="1000mm"
   viewBox="0 0 1123.5019 999.99999"
   version="1.1"
   id="svg1"
   inkscape:version="1.3.2 (091e20e, 2023-11-25, custom)"
   sodipodi:docname="Do.svg"
   xml:space="preserve"
   xmlns:inkscape="http://www.inkscape.org/namespaces/inkscape"
   xmlns:sodipodi="http://sodipodi.sourceforge.net/DTD/sodipodi-0.dtd"
   xmlns="http://www.w3.org/2000/svg"
   xmlns:svg="http://www.w3.org/2000/svg"><sodipodi:namedview
     id="namedview1"
     pagecolor="#505050"
     bordercolor="#eeeeee"
     borderopacity="1"
     inkscape:showpageshadow="0"
     inkscape:pageopacity="0"
     inkscape:pagecheckerboard="0"
     inkscape:deskcolor="#d1d1d1"
     inkscape:document-units="mm"
     inkscape:zoom="0.17572075"
     inkscape:cx="2518.2"
     inkscape:cy="2125.5316"
     inkscape:current-layer="svg1" /><defs
     id="defs1" /><rect
     style="fill:#030000;fill-opacity:1;stroke:none;stroke-width:5.84185;stroke-linecap:round;stroke-linejoin:round;stroke-dashoffset:13.9374"
     id="rect7"
     width="90.887039"
     height="734.99994"
     x="131.99985"
     y="132.5" /><rect
     style="fill:#030000;fill-opacity:1;stroke:none;stroke-width:5.78662;stroke-linecap:round;stroke-linejoin:round;stroke-dashoffset:13.9374"
     id="rect8"
     width="205.48375"
     height="88.911232"
     x="327.78735"
     y="456.53198" /><path
     id="path4"
     style="display:inline;fill:#060000;fill-opacity:1;stroke:none;stroke-width:5.78662;stroke-linecap:round;stroke-linejoin:round;stroke-dashoffset:13.9374"
     d="M 820.59523,330.76365 A 170.90716,170.90716 0 0 0 649.69138,501.66946 170.90716,170.90716 0 0 0 820.59523,672.57676 170.90716,170.90716 0 0 0 991.50157,501.66946 170.90716,170.90716 0 0 0 820.59523,330.76365 Z m 0,25.68535 A 145.22168,145.22168 0 0 1 965.81629,501.66946 145.22168,145.22168 0 0 1 820.59523,646.89146 145.22168,145.22168 0 0 1 675.37564,501.66946 145.22168,145.22168 0 0 1 820.59523,356.449 Z"
     inkscape:label="o" /><rect
     style="fill:#000000;fill-opacity:1;stroke-width:6.42958;stroke-linecap:round;stroke-linejoin:round;stroke-dashoffset:13.9374"
     id="rect1"
     width="162.58136"
     height="162.58136"
     x="327.78735"
     y="222.24979"
     inkscape:label="&quot;" /></svg>
