<?xml version="1.0" encoding="UTF-8" standalone="no"?>
<!-- Created with Inkscape (http://www.inkscape.org/) -->

<svg
   width="1000mm"
   height="1000mm"
   viewBox="0 0 999.99999 999.99999"
   version="1.1"
   id="svg1"
   inkscape:version="1.3.2 (091e20e, 2023-11-25, custom)"
   sodipodi:docname="enclosure.svg"
   xml:space="preserve"
   xmlns:inkscape="http://www.inkscape.org/namespaces/inkscape"
   xmlns:sodipodi="http://sodipodi.sourceforge.net/DTD/sodipodi-0.dtd"
   xmlns="http://www.w3.org/2000/svg"
   xmlns:svg="http://www.w3.org/2000/svg"><sodipodi:namedview
     id="namedview1"
     pagecolor="#505050"
     bordercolor="#eeeeee"
     borderopacity="1"
     inkscape:showpageshadow="0"
     inkscape:pageopacity="0"
     inkscape:pagecheckerboard="0"
     inkscape:deskcolor="#d1d1d1"
     inkscape:document-units="mm"
     inkscape:zoom="0.056568542"
     inkscape:cx="2059.4485"
     inkscape:cy="415.42523"
     inkscape:current-layer="svg1" /><defs
     id="defs1" /><path
     id="path5"
     style="fill:#010000;stroke-width:2.05427;stroke-linecap:round;stroke-linejoin:round;stroke-dashoffset:13.9374"
     d="m 500,34.00005 a 466,466 0 0 0 -466,465.9999 466,466 0 0 0 466,466 466,466 0 0 0 466,-466 466,466 0 0 0 -466,-465.9999 z m 0,32.0001 A 434,434 0 0 1 933.9998,499.99995 434,434 0 0 1 500,933.99985 434,434 0 0 1 66.0001,499.99995 434,434 0 0 1 500,66.00015 Z" /></svg>
