<?xml version="1.0" encoding="UTF-8" standalone="no"?>
<!-- Created with Inkscape (http://www.inkscape.org/) -->

<svg
   width="1040.953mm"
   height="1000mm"
   viewBox="0 0 1040.953 999.99999"
   version="1.1"
   id="svg1"
   inkscape:version="1.3.2 (091e20e, 2023-11-25, custom)"
   sodipodi:docname="Go.svg"
   xml:space="preserve"
   xmlns:inkscape="http://www.inkscape.org/namespaces/inkscape"
   xmlns:sodipodi="http://sodipodi.sourceforge.net/DTD/sodipodi-0.dtd"
   xmlns="http://www.w3.org/2000/svg"
   xmlns:svg="http://www.w3.org/2000/svg"><sodipodi:namedview
     id="namedview1"
     pagecolor="#505050"
     bordercolor="#eeeeee"
     borderopacity="1"
     inkscape:showpageshadow="0"
     inkscape:pageopacity="0"
     inkscape:pagecheckerboard="0"
     inkscape:deskcolor="#d1d1d1"
     inkscape:document-units="mm"
     inkscape:zoom="0.12425334"
     inkscape:cx="977.84095"
     inkscape:cy="2442.5904"
     inkscape:current-layer="svg1" /><defs
     id="defs1" /><path
     id="path4"
     style="display:inline;fill:#060000;fill-opacity:1;stroke:none;stroke-width:5.78662;stroke-linecap:round;stroke-linejoin:round;stroke-dashoffset:13.9374"
     d="M 738.04621,330.76365 A 170.90716,170.90716 0 0 0 567.14137,501.66946 170.90716,170.90716 0 0 0 738.04621,672.57676 170.90716,170.90716 0 0 0 908.95255,501.66946 170.90716,170.90716 0 0 0 738.04621,330.76365 Z m 0,25.68535 A 145.22168,145.22168 0 0 1 883.2672,501.66946 145.22168,145.22168 0 0 1 738.04621,646.89146 145.22168,145.22168 0 0 1 592.82665,501.66946 145.22168,145.22168 0 0 1 738.04621,356.449 Z"
     inkscape:label="o" /><path
     id="rect5"
     style="display:inline;fill:#000000;fill-opacity:1;stroke:none;stroke-width:5.78662;stroke-linecap:round;stroke-linejoin:round;stroke-dashoffset:13.9374"
     d="m 132,132.50001 v 734.99982 h 80.76407 20.00223 51.12703 L 626.62892,132.50001 H 555.49965 L 232.7663,824.60523 V 132.50001 Z"
     inkscape:label="K" /><rect
     style="fill:#000000;fill-opacity:1;stroke-width:6.42958;stroke-linecap:round;stroke-linejoin:round;stroke-dashoffset:13.9374"
     id="rect1"
     width="162.58136"
     height="162.58136"
     x="436.0314"
     y="704.91846"
     inkscape:label="&quot;" /></svg>
