<?xml version="1.0" encoding="UTF-8" standalone="no"?>
<!-- Created with Inkscape (http://www.inkscape.org/) -->

<svg
   width="1000"
   height="1000"
   viewBox="0 0 264.58333 264.58333"
   version="1.1"
   id="svg1"
   inkscape:version="1.3.2 (091e20e, 2023-11-25, custom)"
   sodipodi:docname="master.svg"
   xml:space="preserve"
   xmlns:inkscape="http://www.inkscape.org/namespaces/inkscape"
   xmlns:sodipodi="http://sodipodi.sourceforge.net/DTD/sodipodi-0.dtd"
   xmlns:xlink="http://www.w3.org/1999/xlink"
   xmlns="http://www.w3.org/2000/svg"
   xmlns:svg="http://www.w3.org/2000/svg"><sodipodi:namedview
     id="namedview1"
     pagecolor="#505050"
     bordercolor="#eeeeee"
     borderopacity="1"
     inkscape:showpageshadow="0"
     inkscape:pageopacity="0"
     inkscape:pagecheckerboard="0"
     inkscape:deskcolor="#d1d1d1"
     inkscape:document-units="px"
     inkscape:zoom="0.087860375"
     inkscape:cx="3556.7797"
     inkscape:cy="-62.599323"
     inkscape:current-layer="layer1" /><defs
     id="defs1" /><g
     inkscape:label="Layer 1"
     inkscape:groupmode="layer"
     id="layer1"><image
       preserveAspectRatio="none"
       inkscape:svg-dpi="1024"
       width="804.90979"
       height="194.46875"
       xlink:href="h_sub_text_merch.svg"
       id="image1-8"
       x="116.77"
       y="543.97968" /><image
       preserveAspectRatio="none"
       inkscape:svg-dpi="1024"
       width="986.02753"
       height="194.46875"
       xlink:href="h_sub_text_album.svg"
       id="image1"
       x="463.90445"
       y="-494.94781" /><image
       preserveAspectRatio="none"
       inkscape:svg-dpi="1024"
       width="2038.8364"
       height="194.46875"
       xlink:href="h_sub_text_information.svg"
       id="image1-7"
       x="-616.08997"
       y="-181.82162" /><image
       preserveAspectRatio="none"
       inkscape:svg-dpi="1024"
       width="568.10522"
       height="194.46875"
       xlink:href="h_sub_text_live.svg"
       id="image1-1"
       x="96.973686"
       y="345.63684" /><image
       preserveAspectRatio="none"
       inkscape:svg-dpi="1024"
       width="972.09406"
       height="194.46875"
       xlink:href="h_sub_text_news.svg"
       id="image1-2"
       x="79.886627"
       y="778.92603" /><image
       preserveAspectRatio="none"
       inkscape:svg-dpi="1024"
       width="1146.8861"
       height="194.46875"
       xlink:href="h_sub_text_story.svg"
       id="image1-17"
       x="66.992004"
       y="1004.1793" /><image
       preserveAspectRatio="none"
       inkscape:svg-dpi="1024"
       width="1060.5997"
       height="194.46875"
       xlink:href="h_sub_text_tickets.svg"
       id="image1-29"
       x="57.316685"
       y="1218.493" /><image
       preserveAspectRatio="none"
       inkscape:svg-dpi="1024"
       width="920.20575"
       height="194.46875"
       xlink:href="h_sub_text_videos.svg"
       id="image1-3"
       x="58.017708"
       y="1470.0438" /><g
       id="g4"
       transform="matrix(1.0006821,0,0,1.0006821,-0.0803873,-0.02395863)"><path
         id="path1"
         style="display:inline;stroke-width:0.230905"
         inkscape:label="a"
         d="m 1187.4334,36.191596 -99.7511,193.268164 h 99.7511 z m -7.9483,32.489991 V 222.06587 h -79.1664 z" /><path
         id="path1-4"
         style="display:inline;stroke-width:0.230905"
         inkscape:label="e"
         d="M 1314.418,228.39177 1214.6671,35.123606 h 99.7509 z m -7.9482,-32.48999 V 42.517498 h -79.1664 z" /><g
         id="g2"
         transform="matrix(0.20240632,0,0,0.20240632,1248.1685,31.466845)"
         style="display:inline"
         inkscape:label="i"><rect
           style="fill:#000000;fill-opacity:1;stroke:none;stroke-width:7.55906;stroke-linecap:round;stroke-linejoin:round;stroke-dashoffset:13.9374"
           id="rect2"
           width="121.30656"
           height="614.27576"
           x="591.37085"
           y="363.91968" /><path
           id="path2"
           style="fill:#000000;fill-opacity:1;stroke:none;stroke-width:7.55906;stroke-linecap:round;stroke-linejoin:round;stroke-dashoffset:13.9374"
           d="M 652.02344,20.648438 A 150.98795,150.98795 0 0 0 501.03711,171.63672 150.98795,150.98795 0 0 0 652.02344,322.62305 150.98795,150.98795 0 0 0 803.01172,171.63672 150.98795,150.98795 0 0 0 652.02344,20.648438 Z m 0,29.68164 A 121.30656,121.30656 0 0 1 773.33008,171.63672 121.30656,121.30656 0 0 1 652.02344,292.94336 121.30656,121.30656 0 0 1 530.7168,171.63672 121.30656,121.30656 0 0 1 652.02344,50.330078 Z" /></g><path
         id="rect3"
         style="display:inline;fill:#000000;fill-opacity:1;stroke:none;stroke-width:1.47637;stroke-linecap:round;stroke-linejoin:round;stroke-dashoffset:13.9374"
         d="M 1440.9112,68.712767 V 196.75384 h 87.2094 V 68.712767 Z m 5.2932,7.309343 h 76.6233 v 113.4224 h -76.6233 z"
         inkscape:label="u" /><path
         id="path4"
         style="display:inline;fill:#060000;fill-opacity:1;stroke:none;stroke-width:1.53;stroke-linecap:round;stroke-linejoin:round;stroke-dashoffset:13.9374"
         d="m 1606.7294,87.545103 a 45.188362,45.188362 0 0 0 -45.188,45.188007 45.188362,45.188362 0 0 0 45.188,45.1884 45.188362,45.188362 0 0 0 45.1884,-45.1884 45.188362,45.188362 0 0 0 -45.1884,-45.188007 z m 0,6.791283 a 38.397045,38.397045 0 0 1 38.3971,38.396724 38.397045,38.397045 0 0 1 -38.3971,38.39713 38.397045,38.397045 0 0 1 -38.3967,-38.39713 38.397045,38.397045 0 0 1 38.3967,-38.396724 z"
         inkscape:label="o" /><path
         id="rect5"
         style="display:inline;fill:#000000;fill-opacity:1;stroke:none;stroke-width:1.53;stroke-linecap:round;stroke-linejoin:round;stroke-dashoffset:13.9374"
         d="M 117.84864,35.123606 V 229.45975 h 21.35426 5.28865 13.51814 L 248.63,35.123606 H 229.82321 L 144.49155,218.11829 V 35.123606 Z"
         inkscape:label="K" /><path
         id="rect6"
         style="display:inline;fill:#030000;fill-opacity:1;stroke:none;stroke-width:1.53413;stroke-linecap:round;stroke-linejoin:round;stroke-dashoffset:13.9374"
         d="m 628.06429,35.123606 87.45377,188.558654 h -84.95413 v 5.7775 h 87.63362 5.35547 11.88387 L 647.98313,40.901108 h 86.06418 v -5.777502 h -88.74369 -4.24502 z"
         inkscape:label="S" /><g
         id="g1"
         inkscape:label="T"
         transform="matrix(0.85000028,0,0,0.85000028,91.535814,18.676072)"><rect
           style="fill:#030000;fill-opacity:1;stroke:none;stroke-width:1.81718;stroke-linecap:round;stroke-linejoin:round;stroke-dashoffset:13.9374"
           id="rect7"
           width="28.271526"
           height="228.63072"
           x="1105.261"
           y="19.350031" /><rect
           style="fill:#030000;fill-opacity:1;stroke:none;stroke-width:1.8;stroke-linecap:round;stroke-linejoin:round;stroke-dashoffset:13.9374"
           id="rect8"
           width="63.918236"
           height="27.656927"
           x="1166.1631"
           y="120.14415" /></g><path
         id="rect5-7"
         style="display:inline;fill:#000000;fill-opacity:1;stroke:none;stroke-width:1.53;stroke-linecap:round;stroke-linejoin:round;stroke-dashoffset:13.9374"
         d="M 763.687,229.45975 V 35.123606 h 21.35426 5.28866 13.51813 L 894.46836,229.45975 H 875.66157 L 790.32992,46.46508 v 182.99467 z"
         inkscape:label="N" /><path
         id="rect9"
         style="display:inline;fill:#030000;fill-opacity:1;stroke:none;stroke-width:1.19849;stroke-linecap:round;stroke-linejoin:round;stroke-dashoffset:13.9374"
         d="M 371.07206,35.123606 V 229.45975 h 10.20256 13.82845 101.37316 v -5.74644 H 395.10307 V 35.123606 Z"
         inkscape:label="H" /><g
         id="g3"
         inkscape:label="M"
         transform="matrix(0.85000028,0,0,0.85000028,91.535814,18.676072)"><rect
           style="display:inline;fill:#030000;fill-opacity:1;stroke:none;stroke-width:1.81718;stroke-linecap:round;stroke-linejoin:round;stroke-dashoffset:13.9374"
           id="rect7-7"
           width="28.271526"
           height="228.63072"
           x="977.95929"
           y="19.350031" /><rect
           style="display:inline;fill:#030000;fill-opacity:1;stroke:none;stroke-width:1.81718;stroke-linecap:round;stroke-linejoin:round;stroke-dashoffset:13.9374"
           id="rect7-7-6"
           width="28.271526"
           height="228.63072"
           x="1059.0426"
           y="19.350031" /></g><path
         id="rect9-0"
         style="display:inline;fill:#030000;fill-opacity:1;stroke:none;stroke-width:1.19849;stroke-linecap:round;stroke-linejoin:round;stroke-dashoffset:13.9374"
         d="M 364.01892,229.45975 V 35.123606 H 353.81639 339.98792 238.61477 v 5.746442 H 339.98792 V 229.45975 Z"
         inkscape:label="Y" /><path
         id="rect9-9"
         style="display:inline;fill:#030000;fill-opacity:1;stroke:none;stroke-width:1.19849;stroke-linecap:round;stroke-linejoin:round;stroke-dashoffset:13.9374"
         d="M 510.57988,229.45975 V 35.123606 h 10.20253 13.82847 101.37314 v 5.746442 H 534.61088 V 229.45975 Z"
         inkscape:label="R" /><path
         id="path3"
         style="display:inline;fill:#000000;fill-opacity:1;stroke-width:1.7;stroke-linecap:round;stroke-linejoin:round;stroke-dashoffset:13.9374"
         d="m 1745.082,183.07941 a 23.190036,23.190036 0 0 0 -23.1902,23.19019 23.190036,23.190036 0 0 0 23.1902,23.19019 23.190036,23.190036 0 0 0 23.1897,-23.19019 23.190036,23.190036 0 0 0 -23.1897,-23.19019 z m 0,6.36209 a 16.828168,16.828168 0 0 1 16.8281,16.8281 16.828168,16.828168 0 0 1 -16.8281,16.8281 16.828168,16.828168 0 0 1 -16.8281,-16.8281 16.828168,16.828168 0 0 1 16.8281,-16.8281 z"
         inkscape:label="N-frag" /><rect
         style="fill:#000000;fill-opacity:1;stroke-width:1.7;stroke-linecap:round;stroke-linejoin:round;stroke-dashoffset:13.9374"
         id="rect1"
         width="42.987"
         height="42.987"
         x="1793.5812"
         y="35.123604"
         inkscape:label="&quot;" /></g></g></svg>
