<?xml version="1.0" encoding="UTF-8" standalone="no"?>
<!-- Created with Inkscape (http://www.inkscape.org/) -->

<svg
   width="1000mm"
   height="1000mm"
   viewBox="0 0 999.99999 999.99999"
   version="1.1"
   id="svg1"
   inkscape:version="1.3.2 (091e20e, 2023-11-25, custom)"
   sodipodi:docname="master.svg"
   xml:space="preserve"
   xmlns:inkscape="http://www.inkscape.org/namespaces/inkscape"
   xmlns:sodipodi="http://sodipodi.sourceforge.net/DTD/sodipodi-0.dtd"
   xmlns:xlink="http://www.w3.org/1999/xlink"
   xmlns="http://www.w3.org/2000/svg"
   xmlns:svg="http://www.w3.org/2000/svg"><sodipodi:namedview
     id="namedview1"
     pagecolor="#505050"
     bordercolor="#eeeeee"
     borderopacity="1"
     inkscape:showpageshadow="0"
     inkscape:pageopacity="0"
     inkscape:pagecheckerboard="0"
     inkscape:deskcolor="#d1d1d1"
     inkscape:document-units="mm"
     inkscape:zoom="0.04"
     inkscape:cx="20300"
     inkscape:cy="2712.5"
     inkscape:current-layer="layer1" /><defs
     id="defs1" /><g
     inkscape:label="Layer 1"
     inkscape:groupmode="layer"
     id="layer1"><image
       preserveAspectRatio="none"
       inkscape:svg-dpi="1024"
       width="3042.1787"
       height="735"
       xlink:href="h_sub_text_merch.svg"
       id="image1-8"
       x="-830.58099"
       y="2270.3582" /><image
       preserveAspectRatio="none"
       inkscape:svg-dpi="1024"
       width="3726.7183"
       height="735"
       xlink:href="h_sub_text_album.svg"
       id="image1"
       x="55.53754"
       y="-3496.0615" /><image
       preserveAspectRatio="none"
       inkscape:svg-dpi="1024"
       width="7705.8384"
       height="735"
       xlink:href="h_sub_text_information.svg"
       id="image1-7"
       x="1131.0004"
       y="-1443.2457" /><image
       preserveAspectRatio="none"
       inkscape:svg-dpi="1024"
       width="2147.1692"
       height="735"
       xlink:href="h_sub_text_live.svg"
       id="image1-1"
       x="-905.40118"
       y="1520.7207" /><image
       preserveAspectRatio="none"
       inkscape:svg-dpi="1024"
       width="3674.0562"
       height="735"
       xlink:href="h_sub_text_news.svg"
       id="image1-2"
       x="-969.98187"
       y="3158.3386" /><image
       preserveAspectRatio="none"
       inkscape:svg-dpi="1024"
       width="4334.6875"
       height="735"
       xlink:href="h_sub_text_story.svg"
       id="image1-17"
       x="-1018.7171"
       y="4009.6841" /><image
       preserveAspectRatio="none"
       inkscape:svg-dpi="1024"
       width="4008.5657"
       height="735"
       xlink:href="h_sub_text_tickets.svg"
       id="image1-29"
       x="-1055.285"
       y="4819.6836" /><image
       preserveAspectRatio="none"
       inkscape:svg-dpi="1024"
       width="3477.9429"
       height="735"
       xlink:href="h_sub_text_videos.svg"
       id="image1-3"
       x="-1052.6355"
       y="5770.4204" /><path
       id="path1"
       style="display:inline;stroke-width:0.873307"
       inkscape:label="a"
       d="m 4206.8133,136.53926 -377.2692,730.96061 h 377.2692 z m -30.0613,122.88058 v 580.11555 h -299.4157 z" /><path
       id="path1-4"
       style="display:inline;stroke-width:0.873307"
       inkscape:label="e"
       d="m 4687.0825,863.46061 -377.2684,-730.9606 h 377.2684 z M 4657.0216,740.58004 V 160.46449 h -299.4157 z" /><g
       id="g2"
       transform="matrix(0.76552208,0,0,0.76552208,4436.5199,118.66975)"
       style="display:inline"
       inkscape:label="i"><rect
         style="fill:#000000;fill-opacity:1;stroke:none;stroke-width:7.55906;stroke-linecap:round;stroke-linejoin:round;stroke-dashoffset:13.9374"
         id="rect2"
         width="121.30656"
         height="614.27576"
         x="591.37085"
         y="363.91968" /><path
         id="path2"
         style="fill:#000000;fill-opacity:1;stroke:none;stroke-width:7.55906;stroke-linecap:round;stroke-linejoin:round;stroke-dashoffset:13.9374"
         d="M 652.02344,20.648438 A 150.98795,150.98795 0 0 0 501.03711,171.63672 150.98795,150.98795 0 0 0 652.02344,322.62305 150.98795,150.98795 0 0 0 803.01172,171.63672 150.98795,150.98795 0 0 0 652.02344,20.648438 Z m 0,29.68164 A 121.30656,121.30656 0 0 1 773.33008,171.63672 121.30656,121.30656 0 0 1 652.02344,292.94336 121.30656,121.30656 0 0 1 530.7168,171.63672 121.30656,121.30656 0 0 1 652.02344,50.330078 Z" /></g><path
       id="rect3"
       style="display:inline;fill:#000000;fill-opacity:1;stroke:none;stroke-width:5.58379;stroke-linecap:round;stroke-linejoin:round;stroke-dashoffset:13.9374"
       d="m 5165.4931,259.53776 v 484.26486 h 329.8352 V 259.53776 Z m 20.0195,27.64471 H 5475.31 v 428.97549 h -289.7974 z"
       inkscape:label="u" /><path
       id="path4"
       style="display:inline;fill:#060000;fill-opacity:1;stroke:none;stroke-width:5.78662;stroke-linecap:round;stroke-linejoin:round;stroke-dashoffset:13.9374"
       d="m 5792.6351,330.76365 a 170.90716,170.90716 0 0 0 -170.9058,170.90581 170.90716,170.90716 0 0 0 170.9058,170.9073 170.90716,170.90716 0 0 0 170.9073,-170.9073 170.90716,170.90716 0 0 0 -170.9073,-170.90581 z m 0,25.68535 a 145.22168,145.22168 0 0 1 145.2219,145.22046 145.22168,145.22168 0 0 1 -145.2219,145.222 145.22168,145.22168 0 0 1 -145.2204,-145.222 145.22168,145.22168 0 0 1 145.2204,-145.22046 z"
       inkscape:label="o" /><path
       id="rect5"
       style="display:inline;fill:#000000;fill-opacity:1;stroke:none;stroke-width:5.78662;stroke-linecap:round;stroke-linejoin:round;stroke-dashoffset:13.9374"
       d="m 161.53083,132.50001 v 734.99982 h 80.76407 20.00223 51.12703 L 656.15975,132.50001 H 585.03048 L 262.29713,824.60523 V 132.50001 Z"
       inkscape:label="K" /><path
       id="rect6"
       style="display:inline;fill:#030000;fill-opacity:1;stroke:none;stroke-width:5.80224;stroke-linecap:round;stroke-linejoin:round;stroke-dashoffset:13.9374"
       d="m 2091.2203,132.50001 330.7594,713.14874 h -321.3055 v 21.85112 h 331.4396 20.255 44.946 L 2166.5555,154.35113 h 325.5038 v -21.85112 h -335.638 -16.0551 z"
       inkscape:label="S" /><g
       id="g1"
       inkscape:label="T"
       transform="matrix(3.2147908,0,0,3.2147908,62.012945,70.293698)"><rect
         style="fill:#030000;fill-opacity:1;stroke:none;stroke-width:1.81718;stroke-linecap:round;stroke-linejoin:round;stroke-dashoffset:13.9374"
         id="rect7"
         width="28.271526"
         height="228.63072"
         x="1105.261"
         y="19.350031" /><rect
         style="fill:#030000;fill-opacity:1;stroke:none;stroke-width:1.8;stroke-linecap:round;stroke-linejoin:round;stroke-dashoffset:13.9374"
         id="rect8"
         width="63.918236"
         height="27.656927"
         x="1166.1631"
         y="120.14415" /></g><path
       id="rect5-7"
       style="display:inline;fill:#000000;fill-opacity:1;stroke:none;stroke-width:5.78662;stroke-linecap:round;stroke-linejoin:round;stroke-dashoffset:13.9374"
       d="M 2604.1597,867.49983 V 132.50001 h 80.7641 20.0022 51.127 l 342.7356,734.99982 h -71.1292 L 2704.926,175.39466 v 692.10517 z"
       inkscape:label="N" /><path
       id="rect9"
       style="display:inline;fill:#030000;fill-opacity:1;stroke:none;stroke-width:4.53282;stroke-linecap:round;stroke-linejoin:round;stroke-dashoffset:13.9374"
       d="m 1119.2485,132.50001 v 734.99982 h 38.5872 52.3007 383.404 v -21.73365 h -383.404 V 132.50001 Z"
       inkscape:label="H" /><g
       id="g3"
       inkscape:label="M"
       transform="matrix(3.2147908,0,0,3.2147908,62.012945,70.293698)"><rect
         style="display:inline;fill:#030000;fill-opacity:1;stroke:none;stroke-width:1.81718;stroke-linecap:round;stroke-linejoin:round;stroke-dashoffset:13.9374"
         id="rect7-7"
         width="28.271526"
         height="228.63072"
         x="977.95929"
         y="19.350031" /><rect
         style="display:inline;fill:#030000;fill-opacity:1;stroke:none;stroke-width:1.81718;stroke-linecap:round;stroke-linejoin:round;stroke-dashoffset:13.9374"
         id="rect7-7-6"
         width="28.271526"
         height="228.63072"
         x="1059.0426"
         y="19.350031" /></g><path
       id="rect9-0"
       style="display:inline;fill:#030000;fill-opacity:1;stroke:none;stroke-width:4.53282;stroke-linecap:round;stroke-linejoin:round;stroke-dashoffset:13.9374"
       d="M 1092.5728,867.49983 V 132.50001 h -38.587 -52.3008 -383.40391 v 21.73365 H 1001.685 v 713.26617 z"
       inkscape:label="Y" /><path
       id="rect9-9"
       style="display:inline;fill:#030000;fill-opacity:1;stroke:none;stroke-width:4.53282;stroke-linecap:round;stroke-linejoin:round;stroke-dashoffset:13.9374"
       d="M 1646.8819,867.49983 V 132.50001 h 38.587 52.3007 383.404 v 21.73365 h -383.404 v 713.26617 z"
       inkscape:label="R" /><path
       id="path3"
       style="display:inline;fill:#000000;fill-opacity:1;stroke-width:6.42958;stroke-linecap:round;stroke-linejoin:round;stroke-dashoffset:13.9374"
       d="m 6315.8992,692.08448 a 87.707165,87.707165 0 0 0 -87.7078,87.70775 87.707165,87.707165 0 0 0 87.7078,87.70775 87.707165,87.707165 0 0 0 87.7059,-87.70775 87.707165,87.707165 0 0 0 -87.7059,-87.70775 z m 0,24.0621 a 63.645908,63.645908 0 0 1 63.6457,63.64565 63.645908,63.645908 0 0 1 -63.6457,63.64565 63.645908,63.645908 0 0 1 -63.6456,-63.64565 63.645908,63.645908 0 0 1 63.6456,-63.64565 z"
       inkscape:label="N-frag" /><rect
       style="fill:#000000;fill-opacity:1;stroke-width:6.42958;stroke-linecap:round;stroke-linejoin:round;stroke-dashoffset:13.9374"
       id="rect1"
       width="162.58138"
       height="162.58138"
       x="6499.3281"
       y="132.5"
       inkscape:label="&quot;" /><rect
       style="fill:#010000;stroke-width:2;stroke-linecap:round;stroke-linejoin:round;stroke-dashoffset:13.9374"
       id="rect4"
       width="458.88272"
       height="97.951767"
       x="6743.7661"
       y="449.30048" /><path
       id="path5"
       style="fill:#010000;stroke-width:2.05427;stroke-linecap:round;stroke-linejoin:round;stroke-dashoffset:13.9374"
       d="m 7852.2941,34.00005 a 466,466 0 0 0 -466,465.9999 466,466 0 0 0 466,466 466,466 0 0 0 466,-466 466,466 0 0 0 -466,-465.9999 z m 0,32.0001 a 434,434 0 0 1 433.9998,433.9998 434,434 0 0 1 -433.9998,433.9999 434,434 0 0 1 -433.9999,-433.9999 434,434 0 0 1 433.9999,-433.9998 z" /></g></svg>
