<?xml version="1.0" encoding="UTF-8" standalone="no"?>
<!-- Created with Inkscape (http://www.inkscape.org/) -->

<svg
   width="1098.684mm"
   height="1000mm"
   viewBox="0 0 1098.6839 999.99999"
   version="1.1"
   id="svg1"
   inkscape:version="1.3.2 (091e20e, 2023-11-25, custom)"
   sodipodi:docname="Mo.svg"
   xml:space="preserve"
   xmlns:inkscape="http://www.inkscape.org/namespaces/inkscape"
   xmlns:sodipodi="http://sodipodi.sourceforge.net/DTD/sodipodi-0.dtd"
   xmlns="http://www.w3.org/2000/svg"
   xmlns:svg="http://www.w3.org/2000/svg"><sodipodi:namedview
     id="namedview1"
     pagecolor="#505050"
     bordercolor="#eeeeee"
     borderopacity="1"
     inkscape:showpageshadow="0"
     inkscape:pageopacity="0"
     inkscape:pagecheckerboard="0"
     inkscape:deskcolor="#d1d1d1"
     inkscape:document-units="mm"
     inkscape:zoom="0.087860376"
     inkscape:cx="4393.3342"
     inkscape:cy="1872.2888"
     inkscape:current-layer="svg1" /><defs
     id="defs1" /><g
     id="g3"
     inkscape:label="M"
     transform="matrix(3.2147907,0,0,3.2147907,-3011.9344,70.293698)"><rect
       style="display:inline;fill:#030000;fill-opacity:1;stroke:none;stroke-width:1.81718;stroke-linecap:round;stroke-linejoin:round;stroke-dashoffset:13.9374"
       id="rect7-7"
       width="28.271526"
       height="228.63072"
       x="977.95929"
       y="19.350031" /><rect
       style="display:inline;fill:#030000;fill-opacity:1;stroke:none;stroke-width:1.81718;stroke-linecap:round;stroke-linejoin:round;stroke-dashoffset:13.9374"
       id="rect7-7-6"
       width="28.271526"
       height="228.63072"
       x="1059.0426"
       y="19.350031" /></g><path
     id="path4"
     style="display:inline;fill:#060000;fill-opacity:1;stroke:none;stroke-width:5.78662;stroke-linecap:round;stroke-linejoin:round;stroke-dashoffset:13.9374"
     d="m 795.77679,330.76365 a 170.90716,170.90716 0 0 0 -170.9058,170.90581 170.90716,170.90716 0 0 0 170.9058,170.9073 170.90716,170.90716 0 0 0 170.9073,-170.9073 170.90716,170.90716 0 0 0 -170.9073,-170.90581 z m 0,25.68535 a 145.22168,145.22168 0 0 1 145.2218,145.22046 145.22168,145.22168 0 0 1 -145.2218,145.222 145.22168,145.22168 0 0 1 -145.2204,-145.222 145.22168,145.22168 0 0 1 145.2204,-145.22046 z"
     inkscape:label="o" /></svg>
