<?xml version="1.0" encoding="UTF-8" standalone="no"?>
<svg
   version="1.1"
   viewBox="-10 0 592.53601 1000"
   id="svg1"
   sodipodi:docname="N.svg"
   xml:space="preserve"
   inkscape:version="1.3.2 (091e20e, 2023-11-25, custom)"
   width="592.53601"
   height="1000"
   inkscape:export-filename="FBKINGDOM_a.svg"
   inkscape:export-xdpi="96"
   inkscape:export-ydpi="96"
   xmlns:inkscape="http://www.inkscape.org/namespaces/inkscape"
   xmlns:sodipodi="http://sodipodi.sourceforge.net/DTD/sodipodi-0.dtd"
   xmlns="http://www.w3.org/2000/svg"
   xmlns:svg="http://www.w3.org/2000/svg"><defs
     id="defs1" /><sodipodi:namedview
     id="namedview1"
     pagecolor="#505050"
     bordercolor="#eeeeee"
     borderopacity="1"
     inkscape:showpageshadow="0"
     inkscape:pageopacity="0"
     inkscape:pagecheckerboard="0"
     inkscape:deskcolor="#d1d1d1"
     inkscape:zoom="0.54793441"
     inkscape:cx="386.90762"
     inkscape:cy="480.89697"
     inkscape:current-layer="layer12" /><g
     inkscape:groupmode="layer"
     id="layer3"
     inkscape:label="i"
     style="display:inline"><path
       id="path3"
       style="fill:#000000;fill-opacity:1;stroke-width:7.55906;stroke-linecap:round;stroke-linejoin:round;stroke-dashoffset:13.9374"
       d="M 402.42262,769.38456 A 103.11453,103.11453 0 0 0 299.30742,872.4998 103.11453,103.11453 0 0 0 402.42262,975.61503 103.11453,103.11453 0 0 0 505.53592,872.4998 103.11453,103.11453 0 0 0 402.42262,769.38456 Z m 0,28.28907 a 74.826477,74.826477 0 0 1 74.8262,74.82617 74.826477,74.826477 0 0 1 -74.8262,74.82617 74.826477,74.826477 0 0 1 -74.8262,-74.82617 74.826477,74.826477 0 0 1 74.8262,-74.82617 z" /></g><g
     inkscape:groupmode="layer"
     id="layer12"
     inkscape:label="M"
     style="display:inline"><rect
       style="display:inline;fill:#030000;fill-opacity:1;stroke:none;stroke-width:7.6312;stroke-linecap:round;stroke-linejoin:round;stroke-dashoffset:13.9374"
       id="rect7-7"
       width="118.72557"
       height="960.12903"
       x="67"
       y="15.486" /></g></svg>
