<?xml version="1.0" encoding="UTF-8" standalone="no"?>
<!-- Created with Inkscape (http://www.inkscape.org/) -->

<svg
   width="667.18402mm"
   height="1000mm"
   viewBox="0 0 667.18401 999.99999"
   version="1.1"
   id="svg1"
   inkscape:version="1.3.2 (091e20e, 2023-11-25, custom)"
   sodipodi:docname="N.svg"
   xml:space="preserve"
   xmlns:inkscape="http://www.inkscape.org/namespaces/inkscape"
   xmlns:sodipodi="http://sodipodi.sourceforge.net/DTD/sodipodi-0.dtd"
   xmlns="http://www.w3.org/2000/svg"
   xmlns:svg="http://www.w3.org/2000/svg"><sodipodi:namedview
     id="namedview1"
     pagecolor="#505050"
     bordercolor="#eeeeee"
     borderopacity="1"
     inkscape:showpageshadow="0"
     inkscape:pageopacity="0"
     inkscape:pagecheckerboard="0"
     inkscape:deskcolor="#d1d1d1"
     inkscape:document-units="mm"
     inkscape:zoom="0.087860376"
     inkscape:cx="1553.6014"
     inkscape:cy="2350.32"
     inkscape:current-layer="svg1" /><defs
     id="defs1" /><path
     id="path3"
     style="display:inline;fill:#000000;fill-opacity:1;stroke-width:6.42958;stroke-linecap:round;stroke-linejoin:round;stroke-dashoffset:13.9374"
     d="m 447.47853,692.08448 a 87.707165,87.707165 0 0 0 -87.7078,87.70775 87.707165,87.707165 0 0 0 87.7078,87.70775 87.707165,87.707165 0 0 0 87.7059,-87.70775 87.707165,87.707165 0 0 0 -87.7059,-87.70775 z m 0,24.0621 a 63.645908,63.645908 0 0 1 63.6457,63.64565 63.645908,63.645908 0 0 1 -63.6457,63.64565 63.645908,63.645908 0 0 1 -63.6456,-63.64565 63.645908,63.645908 0 0 1 63.6456,-63.64565 z"
     inkscape:label="N-frag" /><rect
     style="display:inline;fill:#030000;fill-opacity:1;stroke:none;stroke-width:5.84185;stroke-linecap:round;stroke-linejoin:round;stroke-dashoffset:13.9374"
     id="rect7-7"
     width="90.887039"
     height="734.99994"
     x="132"
     y="132.5" /></svg>
