<?xml version="1.0" encoding="UTF-8" standalone="no"?>
<!-- Created with Inkscape (http://www.inkscape.org/) -->

<svg
   width="1187.611mm"
   height="1000mm"
   viewBox="0 0 1187.611 999.99999"
   version="1.1"
   id="svg1"
   inkscape:version="1.3.2 (091e20e, 2023-11-25, custom)"
   sodipodi:docname="Pi.svg"
   xml:space="preserve"
   xmlns:inkscape="http://www.inkscape.org/namespaces/inkscape"
   xmlns:sodipodi="http://sodipodi.sourceforge.net/DTD/sodipodi-0.dtd"
   xmlns="http://www.w3.org/2000/svg"
   xmlns:svg="http://www.w3.org/2000/svg"><sodipodi:namedview
     id="namedview1"
     pagecolor="#505050"
     bordercolor="#eeeeee"
     borderopacity="1"
     inkscape:showpageshadow="0"
     inkscape:pageopacity="0"
     inkscape:pagecheckerboard="0"
     inkscape:deskcolor="#d1d1d1"
     inkscape:document-units="mm"
     inkscape:zoom="0.12425334"
     inkscape:cx="1565.3503"
     inkscape:cy="1549.2541"
     inkscape:current-layer="svg1" /><defs
     id="defs1" /><g
     id="g2"
     transform="matrix(0.76552208,0,0,0.76552208,311.86576,118.66975)"
     style="display:inline"
     inkscape:label="i"><rect
       style="fill:#000000;fill-opacity:1;stroke:none;stroke-width:7.55906;stroke-linecap:round;stroke-linejoin:round;stroke-dashoffset:13.9374"
       id="rect2"
       width="121.30656"
       height="614.27576"
       x="591.37085"
       y="363.91968" /><path
       id="path2"
       style="fill:#000000;fill-opacity:1;stroke:none;stroke-width:7.55906;stroke-linecap:round;stroke-linejoin:round;stroke-dashoffset:13.9374"
       d="M 652.02344,20.648438 A 150.98795,150.98795 0 0 0 501.03711,171.63672 150.98795,150.98795 0 0 0 652.02344,322.62305 150.98795,150.98795 0 0 0 803.01172,171.63672 150.98795,150.98795 0 0 0 652.02344,20.648438 Z m 0,29.68164 A 121.30656,121.30656 0 0 1 773.33008,171.63672 121.30656,121.30656 0 0 1 652.02344,292.94336 121.30656,121.30656 0 0 1 530.7168,171.63672 121.30656,121.30656 0 0 1 652.02344,50.330078 Z" /></g><path
     id="rect9"
     style="display:inline;fill:#030000;fill-opacity:1;stroke:none;stroke-width:4.53282;stroke-linecap:round;stroke-linejoin:round;stroke-dashoffset:13.9374"
     d="M 146,132.50001 V 867.4998 h 38.58716 52.30066 383.40398 V 845.76616 H 236.88782 V 132.50001 Z"
     inkscape:label="H" /><path
     id="rect10"
     style="fill:#020000;fill-opacity:1;stroke-width:1.77143;stroke-linecap:round;stroke-linejoin:round;stroke-dashoffset:13.9374"
     d="m 751.62113,26.318 v 32.00063 h 257.98737 v 257.98683 h 32.0025 V 26.318 Z" /></svg>
