<?xml version="1.0" encoding="UTF-8" standalone="no"?>
<!-- Created with Inkscape (http://www.inkscape.org/) -->

<svg
   width="931.34698mm"
   height="1000mm"
   viewBox="0 0 931.34698 999.99999"
   version="1.1"
   id="svg1"
   inkscape:version="1.3.2 (091e20e, 2023-11-25, custom)"
   sodipodi:docname="Ti.svg"
   xml:space="preserve"
   xmlns:inkscape="http://www.inkscape.org/namespaces/inkscape"
   xmlns:sodipodi="http://sodipodi.sourceforge.net/DTD/sodipodi-0.dtd"
   xmlns="http://www.w3.org/2000/svg"
   xmlns:svg="http://www.w3.org/2000/svg"><sodipodi:namedview
     id="namedview1"
     pagecolor="#505050"
     bordercolor="#eeeeee"
     borderopacity="1"
     inkscape:showpageshadow="0"
     inkscape:pageopacity="0"
     inkscape:pagecheckerboard="0"
     inkscape:deskcolor="#d1d1d1"
     inkscape:document-units="mm"
     inkscape:zoom="0.087860376"
     inkscape:cx="2498.282"
     inkscape:cy="2771.4427"
     inkscape:current-layer="svg1" /><defs
     id="defs1" /><g
     id="g1"
     inkscape:label="T"
     transform="matrix(3.2147907,0,0,3.2147907,-3421.1829,70.293698)"><g
       id="g2"
       transform="matrix(0.23812501,0,0,0.23812501,1121.6303,15.047963)"
       style="display:inline"
       inkscape:label="i"><rect
         style="fill:#000000;fill-opacity:1;stroke:none;stroke-width:7.55906;stroke-linecap:round;stroke-linejoin:round;stroke-dashoffset:13.9374"
         id="rect2"
         width="121.30656"
         height="614.27576"
         x="591.37085"
         y="363.91968" /><path
         id="path2"
         style="fill:#000000;fill-opacity:1;stroke:none;stroke-width:7.55906;stroke-linecap:round;stroke-linejoin:round;stroke-dashoffset:13.9374"
         d="M 652.02344,20.648438 A 150.98795,150.98795 0 0 0 501.03711,171.63672 150.98795,150.98795 0 0 0 652.02344,322.62305 150.98795,150.98795 0 0 0 803.01172,171.63672 150.98795,150.98795 0 0 0 652.02344,20.648438 Z m 0,29.68164 A 121.30656,121.30656 0 0 1 773.33008,171.63672 121.30656,121.30656 0 0 1 652.02344,292.94336 121.30656,121.30656 0 0 1 530.7168,171.63672 121.30656,121.30656 0 0 1 652.02344,50.330078 Z" /></g><rect
       style="fill:#030000;fill-opacity:1;stroke:none;stroke-width:1.81718;stroke-linecap:round;stroke-linejoin:round;stroke-dashoffset:13.9374"
       id="rect7"
       width="28.271526"
       height="228.63072"
       x="1105.261"
       y="19.350031" /><rect
       style="fill:#030000;fill-opacity:1;stroke:none;stroke-width:1.8;stroke-linecap:round;stroke-linejoin:round;stroke-dashoffset:13.9374"
       id="rect8"
       width="63.918236"
       height="27.656927"
       x="1166.1631"
       y="120.14415" /></g></svg>
