<?xml version="1.0" encoding="UTF-8" standalone="no"?>
<!-- Created with Inkscape (http://www.inkscape.org/) -->

<svg
   width="1123.502mm"
   height="1000mm"
   viewBox="0 0 1123.5019 999.99999"
   version="1.1"
   id="svg1"
   inkscape:version="1.3.2 (091e20e, 2023-11-25, custom)"
   sodipodi:docname="To.svg"
   xml:space="preserve"
   xmlns:inkscape="http://www.inkscape.org/namespaces/inkscape"
   xmlns:sodipodi="http://sodipodi.sourceforge.net/DTD/sodipodi-0.dtd"
   xmlns="http://www.w3.org/2000/svg"
   xmlns:svg="http://www.w3.org/2000/svg"><sodipodi:namedview
     id="namedview1"
     pagecolor="#505050"
     bordercolor="#eeeeee"
     borderopacity="1"
     inkscape:showpageshadow="0"
     inkscape:pageopacity="0"
     inkscape:pagecheckerboard="0"
     inkscape:deskcolor="#d1d1d1"
     inkscape:document-units="mm"
     inkscape:zoom="0.17572075"
     inkscape:cx="2518.2"
     inkscape:cy="2125.5315"
     inkscape:current-layer="svg1" /><defs
     id="defs1" /><g
     id="g1"
     inkscape:label="T"
     transform="matrix(3.2147907,0,0,3.2147907,-3421.1829,70.293698)"><rect
       style="fill:#030000;fill-opacity:1;stroke:none;stroke-width:1.81718;stroke-linecap:round;stroke-linejoin:round;stroke-dashoffset:13.9374"
       id="rect7"
       width="28.271526"
       height="228.63072"
       x="1105.261"
       y="19.350031" /><rect
       style="fill:#030000;fill-opacity:1;stroke:none;stroke-width:1.8;stroke-linecap:round;stroke-linejoin:round;stroke-dashoffset:13.9374"
       id="rect8"
       width="63.918236"
       height="27.656927"
       x="1166.1631"
       y="120.14415" /></g><path
     id="path4"
     style="display:inline;fill:#060000;fill-opacity:1;stroke:none;stroke-width:5.78662;stroke-linecap:round;stroke-linejoin:round;stroke-dashoffset:13.9374"
     d="M 820.59523,330.76365 A 170.90716,170.90716 0 0 0 649.69138,501.66946 170.90716,170.90716 0 0 0 820.59523,672.57676 170.90716,170.90716 0 0 0 991.50157,501.66946 170.90716,170.90716 0 0 0 820.59523,330.76365 Z m 0,25.68535 A 145.22168,145.22168 0 0 1 965.81629,501.66946 145.22168,145.22168 0 0 1 820.59523,646.89146 145.22168,145.22168 0 0 1 675.37564,501.66946 145.22168,145.22168 0 0 1 820.59523,356.449 Z"
     inkscape:label="o" /></svg>
