<?xml version="1.0" encoding="UTF-8" standalone="no"?>
<!-- Created with Inkscape (http://www.inkscape.org/) -->

<svg
   width="872.85101mm"
   height="1000mm"
   viewBox="0 0 872.851 999.99999"
   version="1.1"
   id="svg1"
   inkscape:version="1.3.2 (091e20e, 2023-11-25, custom)"
   sodipodi:docname="Xo.svg"
   xml:space="preserve"
   xmlns:inkscape="http://www.inkscape.org/namespaces/inkscape"
   xmlns:sodipodi="http://sodipodi.sourceforge.net/DTD/sodipodi-0.dtd"
   xmlns="http://www.w3.org/2000/svg"
   xmlns:svg="http://www.w3.org/2000/svg"><sodipodi:namedview
     id="namedview1"
     pagecolor="#505050"
     bordercolor="#eeeeee"
     borderopacity="1"
     inkscape:showpageshadow="0"
     inkscape:pageopacity="0"
     inkscape:pagecheckerboard="0"
     inkscape:deskcolor="#d1d1d1"
     inkscape:document-units="mm"
     inkscape:zoom="0.087860376"
     inkscape:cx="2475.5187"
     inkscape:cy="2270.6481"
     inkscape:current-layer="svg1" /><defs
     id="defs1" /><path
     id="path4"
     style="display:inline;fill:#060000;fill-opacity:1;stroke:none;stroke-width:5.78662;stroke-linecap:round;stroke-linejoin:round;stroke-dashoffset:13.9374"
     d="M 303.40578,330.76364 A 170.90715,170.90715 0 0 0 132.5,501.66945 170.90715,170.90715 0 0 0 303.40578,672.57674 170.90715,170.90715 0 0 0 474.31308,501.66945 170.90715,170.90715 0 0 0 303.40578,330.76364 Z m 0,25.68535 A 145.22168,145.22168 0 0 1 448.62767,501.66945 145.22168,145.22168 0 0 1 303.40578,646.89144 145.22168,145.22168 0 0 1 158.18541,501.66945 145.22168,145.22168 0 0 1 303.40578,356.44899 Z"
     inkscape:label="o" /><rect
     style="fill:#000000;fill-opacity:1;stroke-width:6.42958;stroke-linecap:round;stroke-linejoin:round;stroke-dashoffset:13.9374"
     id="rect1"
     width="162.58138"
     height="162.58138"
     x="550.76965"
     y="420.37952"
     inkscape:label="&quot;" /></svg>
