<?xml version="1.0" encoding="UTF-8" standalone="no"?>
<!-- Created with Inkscape (http://www.inkscape.org/) -->

<svg
   width="1185.339mm"
   height="1000mm"
   viewBox="0 0 1185.339 999.99999"
   version="1.1"
   id="svg1"
   inkscape:version="1.3.2 (091e20e, 2023-11-25, custom)"
   sodipodi:docname="Yo.svg"
   xml:space="preserve"
   xmlns:inkscape="http://www.inkscape.org/namespaces/inkscape"
   xmlns:sodipodi="http://sodipodi.sourceforge.net/DTD/sodipodi-0.dtd"
   xmlns="http://www.w3.org/2000/svg"
   xmlns:svg="http://www.w3.org/2000/svg"><sodipodi:namedview
     id="namedview1"
     pagecolor="#505050"
     bordercolor="#eeeeee"
     borderopacity="1"
     inkscape:showpageshadow="0"
     inkscape:pageopacity="0"
     inkscape:pagecheckerboard="0"
     inkscape:deskcolor="#d1d1d1"
     inkscape:document-units="mm"
     inkscape:zoom="0.12425334"
     inkscape:cx="2736.345"
     inkscape:cy="1951.6579"
     inkscape:current-layer="svg1" /><defs
     id="defs1" /><path
     id="path4"
     style="display:inline;fill:#060000;fill-opacity:1;stroke:none;stroke-width:5.78662;stroke-linecap:round;stroke-linejoin:round;stroke-dashoffset:13.9374"
     d="M 882.43423,327.05945 A 170.90715,170.90715 0 0 0 711.52952,497.96526 170.90715,170.90715 0 0 0 882.43423,668.87255 170.90715,170.90715 0 0 0 1053.3391,497.96526 170.90715,170.90715 0 0 0 882.43423,327.05945 Z m 0,25.68535 A 145.22168,145.22168 0 0 1 1027.6537,497.96526 145.22168,145.22168 0 0 1 882.43423,643.18725 145.22168,145.22168 0 0 1 737.21477,497.96526 145.22168,145.22168 0 0 1 882.43423,352.7448 Z"
     inkscape:label="o" /><path
     id="rect9-0"
     style="display:inline;fill:#030000;fill-opacity:1;stroke:none;stroke-width:4.53282;stroke-linecap:round;stroke-linejoin:round;stroke-dashoffset:13.9374"
     d="M 606.29173,867.4998 V 132.50001 H 567.70468 515.40395 132 v 21.73365 H 515.40395 V 867.4998 Z"
     inkscape:label="Y" /></svg>
