<?xml version="1.0" encoding="UTF-8" standalone="no"?>
<!-- Created with Inkscape (http://www.inkscape.org/) -->

<svg
   width="1029.191mm"
   height="1000mm"
   viewBox="0 0 1029.191 999.99999"
   version="1.1"
   id="svg1"
   inkscape:version="1.3.2 (091e20e, 2023-11-25, custom)"
   sodipodi:docname="Zi.svg"
   xml:space="preserve"
   xmlns:inkscape="http://www.inkscape.org/namespaces/inkscape"
   xmlns:sodipodi="http://sodipodi.sourceforge.net/DTD/sodipodi-0.dtd"
   xmlns="http://www.w3.org/2000/svg"
   xmlns:svg="http://www.w3.org/2000/svg"><sodipodi:namedview
     id="namedview1"
     pagecolor="#505050"
     bordercolor="#eeeeee"
     borderopacity="1"
     inkscape:showpageshadow="0"
     inkscape:pageopacity="0"
     inkscape:pagecheckerboard="0"
     inkscape:deskcolor="#d1d1d1"
     inkscape:document-units="mm"
     inkscape:zoom="0.12425334"
     inkscape:cx="2458.6864"
     inkscape:cy="1476.8215"
     inkscape:current-layer="svg1" /><defs
     id="defs1" /><g
     id="g2"
     transform="matrix(0.76552208,0,0,0.76552208,282.46739,118.66975)"
     style="display:inline"
     inkscape:label="i"><rect
       style="fill:#000000;fill-opacity:1;stroke:none;stroke-width:7.55906;stroke-linecap:round;stroke-linejoin:round;stroke-dashoffset:13.9374"
       id="rect2"
       width="121.30656"
       height="614.27576"
       x="591.37085"
       y="363.91968" /><path
       id="path2"
       style="fill:#000000;fill-opacity:1;stroke:none;stroke-width:7.55906;stroke-linecap:round;stroke-linejoin:round;stroke-dashoffset:13.9374"
       d="M 652.02344,20.648438 A 150.98795,150.98795 0 0 0 501.03711,171.63672 150.98795,150.98795 0 0 0 652.02344,322.62305 150.98795,150.98795 0 0 0 803.01172,171.63672 150.98795,150.98795 0 0 0 652.02344,20.648438 Z m 0,29.68164 A 121.30656,121.30656 0 0 1 773.33008,171.63672 121.30656,121.30656 0 0 1 652.02344,292.94336 121.30656,121.30656 0 0 1 530.7168,171.63672 121.30656,121.30656 0 0 1 652.02344,50.330078 Z" /></g><path
     id="rect6"
     style="display:inline;fill:#030000;fill-opacity:1;stroke:none;stroke-width:5.80224;stroke-linecap:round;stroke-linejoin:round;stroke-dashoffset:13.9374"
     d="M 132,132.50001 462.7594,845.64875 H 141.4539 v 21.85112 h 331.4396 20.255 44.946 L 207.3352,154.35113 H 532.839 V 132.50001 H 197.201 181.1459 Z"
     inkscape:label="S" /><rect
     style="fill:#000000;fill-opacity:1;stroke-width:6.42958;stroke-linecap:round;stroke-linejoin:round;stroke-dashoffset:13.9374"
     id="rect1"
     width="162.58136"
     height="162.58136"
     x="470.70923"
     y="363.2171"
     inkscape:label="&quot;" /></svg>
