<?xml version="1.0" encoding="UTF-8" standalone="no"?>
<!-- Created with Inkscape (http://www.inkscape.org/) -->

<svg
   width="1008.144mm"
   height="1000mm"
   viewBox="0 0 1008.144 999.99999"
   version="1.1"
   id="svg1"
   inkscape:version="1.3.2 (091e20e, 2023-11-25, custom)"
   sodipodi:docname="Zo.svg"
   xml:space="preserve"
   xmlns:inkscape="http://www.inkscape.org/namespaces/inkscape"
   xmlns:sodipodi="http://sodipodi.sourceforge.net/DTD/sodipodi-0.dtd"
   xmlns="http://www.w3.org/2000/svg"
   xmlns:svg="http://www.w3.org/2000/svg"><sodipodi:namedview
     id="namedview1"
     pagecolor="#505050"
     bordercolor="#eeeeee"
     borderopacity="1"
     inkscape:showpageshadow="0"
     inkscape:pageopacity="0"
     inkscape:pagecheckerboard="0"
     inkscape:deskcolor="#d1d1d1"
     inkscape:document-units="mm"
     inkscape:zoom="0.17572075"
     inkscape:cx="1823.9166"
     inkscape:cy="2006.0237"
     inkscape:current-layer="svg1" /><defs
     id="defs1" /><path
     id="path4"
     style="display:inline;fill:#060000;fill-opacity:1;stroke:none;stroke-width:5.78662;stroke-linecap:round;stroke-linejoin:round;stroke-dashoffset:13.9374"
     d="M 705.23788,330.76365 A 170.90716,170.90716 0 0 0 534.33304,501.66946 170.90716,170.90716 0 0 0 705.23788,672.57676 170.90716,170.90716 0 0 0 876.14422,501.66946 170.90716,170.90716 0 0 0 705.23788,330.76365 Z m 0,25.68535 A 145.22168,145.22168 0 0 1 850.45897,501.66946 145.22168,145.22168 0 0 1 705.23788,646.89146 145.22168,145.22168 0 0 1 560.01832,501.66946 145.22168,145.22168 0 0 1 705.23788,356.449 Z"
     inkscape:label="o" /><path
     id="rect6"
     style="display:inline;fill:#030000;fill-opacity:1;stroke:none;stroke-width:5.80224;stroke-linecap:round;stroke-linejoin:round;stroke-dashoffset:13.9374"
     d="M 132,132.50001 462.7594,845.64875 H 141.4539 v 21.85112 h 331.4396 20.255 44.946 L 207.3352,154.35113 H 532.839 V 132.50001 H 197.201 181.1459 Z"
     inkscape:label="S" /><rect
     style="fill:#000000;fill-opacity:1;stroke-width:6.42958;stroke-linecap:round;stroke-linejoin:round;stroke-dashoffset:13.9374"
     id="rect1"
     width="162.58136"
     height="162.58136"
     x="384.98987"
     y="204.76718"
     inkscape:label="&quot;" /></svg>
