<?xml version="1.0" encoding="UTF-8" standalone="no"?>
<svg
   version="1.1"
   viewBox="-10 0 999.95502 1000"
   id="svg1"
   sodipodi:docname="Zo.svg"
   xml:space="preserve"
   inkscape:version="1.3.2 (091e20e, 2023-11-25, custom)"
   width="999.95502"
   height="1000"
   inkscape:export-filename="FBKINGDOM_a.svg"
   inkscape:export-xdpi="96"
   inkscape:export-ydpi="96"
   xmlns:inkscape="http://www.inkscape.org/namespaces/inkscape"
   xmlns:sodipodi="http://sodipodi.sourceforge.net/DTD/sodipodi-0.dtd"
   xmlns="http://www.w3.org/2000/svg"
   xmlns:svg="http://www.w3.org/2000/svg"><defs
     id="defs1" /><sodipodi:namedview
     id="namedview1"
     pagecolor="#505050"
     bordercolor="#eeeeee"
     borderopacity="1"
     inkscape:showpageshadow="0"
     inkscape:pageopacity="0"
     inkscape:pagecheckerboard="0"
     inkscape:deskcolor="#d1d1d1"
     inkscape:zoom="0.54793441"
     inkscape:cx="385.9951"
     inkscape:cy="480.89697"
     inkscape:current-layer="layer6" /><g
     inkscape:groupmode="layer"
     id="layer6"
     inkscape:label="o"
     style="display:inline"><path
       id="path4"
       style="fill:#060000;fill-opacity:1;stroke:none;stroke-width:7.55906;stroke-linecap:round;stroke-linejoin:round;stroke-dashoffset:13.9374"
       d="M 689.69922,191.58594 A 223.25569,223.25569 0 0 0 466.44531,414.83984 223.25569,223.25569 0 0 0 689.69922,638.0957 223.25569,223.25569 0 0 0 912.95508,414.83984 223.25569,223.25569 0 0 0 689.69922,191.58594 Z m 0,33.55273 A 189.7028,189.7028 0 0 1 879.40234,414.83984 189.7028,189.7028 0 0 1 689.69922,604.54297 189.7028,189.7028 0 0 1 499.99805,414.83984 189.7028,189.7028 0 0 1 689.69922,225.13867 Z" /><rect
       style="fill:#000000;fill-opacity:1;stroke-width:5.513;stroke-linecap:round;stroke-linejoin:round;stroke-dashoffset:13.9374"
       id="rect4"
       width="177.02849"
       height="177.02849"
       x="299.27454"
       y="81.224747" /></g><g
     inkscape:groupmode="layer"
     id="layer8"
     inkscape:label="S"
     style="display:inline"><path
       id="rect6"
       style="fill:#030000;fill-opacity:1;stroke:none;stroke-width:7.57946;stroke-linecap:round;stroke-linejoin:round;stroke-dashoffset:13.9374"
       d="M 67,15.486 499.07032,947.07091 H 79.349605 V 975.615 h 432.958985 26.45898 58.71289 L 165.41015,44.030095 H 590.61523 V 15.486 H 152.17187 131.19921 Z" /></g></svg>
